<svg width="32" height="32" viewBox="0 0 32 32" fill="none" xmlns="http://www.w3.org/2000/svg">
<path fill-rule="evenodd" clip-rule="evenodd" d="M25.4666 25.5466C26.2533 24.3466 26.5466 23.7333 27.1466 22.3866C22.7199 20.7066 22.0133 14.3999 26.3866 11.9866C25.0533 10.3066 23.1733 9.33325 21.3999 9.33325C20.1199 9.33325 19.2399 9.66659 18.4533 9.97326C17.7866 10.2266 17.1866 10.4532 16.4399 10.4532C15.6399 10.4532 14.9333 10.1999 14.1866 9.93325C13.3866 9.63991 12.5333 9.33325 11.4666 9.33325C9.47994 9.33325 7.35994 10.5466 6.01328 12.6266C4.11994 15.5599 4.45327 21.0532 7.5066 25.7466C8.59994 27.4266 10.0666 29.3066 11.9733 29.3333C12.7733 29.3466 13.2933 29.1066 13.8666 28.8533C14.5199 28.5599 15.2266 28.2399 16.4666 28.2399C17.7066 28.2266 18.3999 28.5599 19.0533 28.8533C19.6133 29.1066 20.1199 29.3466 20.9066 29.3333C22.8266 29.3066 24.3733 27.2266 25.4666 25.5466Z" fill="white"/>
<path fill-rule="evenodd" clip-rule="evenodd" d="M21.1198 2.66675C21.3332 4.13341 20.7332 5.58674 19.9465 6.60008C19.1065 7.69341 17.6398 8.54675 16.2265 8.49342C15.9732 7.08009 16.6265 5.62675 17.4265 4.65341C18.3198 3.58675 19.8265 2.76008 21.1198 2.66675Z" fill="white"/>
</svg>
