<svg width="16" height="16" viewBox="0 0 16 16" fill="none" xmlns="http://www.w3.org/2000/svg">
<path d="M8.00004 15.1668C4.04671 15.1668 0.833374 11.9535 0.833374 8.00016C0.833374 4.04683 4.04671 0.833496 8.00004 0.833496C11.9534 0.833496 15.1667 4.04683 15.1667 8.00016C15.1667 11.9535 11.9534 15.1668 8.00004 15.1668ZM8.00004 1.8335C4.60004 1.8335 1.83337 4.60016 1.83337 8.00016C1.83337 11.4002 4.60004 14.1668 8.00004 14.1668C11.4 14.1668 14.1667 11.4002 14.1667 8.00016C14.1667 4.60016 11.4 1.8335 8.00004 1.8335Z" fill="black"/>
<path d="M8.1602 11.1668C6.41353 11.1668 4.99353 9.74683 4.99353 8.00016C4.99353 6.2535 6.41353 4.8335 8.1602 4.8335C8.92686 4.8335 9.67353 5.1135 10.2469 5.62683C10.4535 5.80683 10.4735 6.12683 10.2935 6.3335C10.1135 6.54016 9.79354 6.56017 9.58687 6.38017C9.19354 6.0335 8.68686 5.84017 8.1602 5.84017C6.96686 5.84017 5.99353 6.8135 5.99353 8.00684C5.99353 9.20017 6.96686 10.1735 8.1602 10.1735C8.6802 10.1735 9.19354 9.98017 9.58687 9.6335C9.79354 9.4535 10.1135 9.47351 10.2935 9.68018C10.4735 9.88684 10.4535 10.2068 10.2469 10.3868C9.66687 10.8868 8.92686 11.1668 8.1602 11.1668Z" fill="black"/>
</svg>
