<svg width="74" height="74" viewBox="0 0 74 74" fill="none" xmlns="http://www.w3.org/2000/svg">
<path d="M69.3438 0.171875L46.3125 8.82031L54.5781 14.0312C39.8125 32.625 18.4531 44.0781 0.40625 48.4375L5.51875 57.75C25.7969 51.1406 47.2656 39.2188 61.0938 18.1562L67.3906 22.125L69.3438 0.171875ZM70.5469 18.4062L69.7969 26.9688L61.7813 21.9062C61.5 22.3281 61.2031 22.7344 60.9062 23.1562V73.0938H73.0938V18.4062H70.5469ZM47.0156 38.4062C45.0313 40.125 42.9844 41.75 40.9062 43.2813V73.0938H53.0938V38.4062H47.0156ZM27.6875 51.5312C25.4375 52.7188 23.1875 53.8125 20.9062 54.8438V73.0938H33.0938V51.5312H27.6875ZM0.90625 58.4062V73.0938H13.0938V58.4062H12.2063C9.89063 59.2656 7.57656 60.0625 5.27656 60.7969L4.17344 61.1406L2.67344 58.4062H0.90625Z" fill="white"/>
</svg>
