<svg width="36" height="36" viewBox="0 0 36 36" fill="none" xmlns="http://www.w3.org/2000/svg">
<path d="M19.5419 3.00136C20.6365 2.99716 21.7311 3.00816 22.8254 3.03436L23.1164 3.04486C23.4524 3.05686 23.7839 3.07186 24.1844 3.08986C25.7804 3.16486 26.8694 3.41686 27.8249 3.78736C28.8149 4.16836 29.6489 4.68436 30.4829 5.51836C31.2454 6.26777 31.8356 7.17428 32.2124 8.17486C32.5829 9.13036 32.8349 10.2209 32.9099 11.8169C32.9279 12.2159 32.9429 12.5489 32.9549 12.8849L32.9639 13.1759C32.9905 14.2696 33.002 15.3638 32.9984 16.4579L32.9999 17.5769V19.5419C33.0036 20.6365 32.9921 21.7311 32.9654 22.8254L32.9564 23.1164C32.9444 23.4524 32.9294 23.7839 32.9114 24.1844C32.8364 25.7804 32.5814 26.8694 32.2124 27.8249C31.8369 28.8265 31.2465 29.7338 30.4829 30.4829C29.7328 31.2453 28.8259 31.8355 27.8249 32.2124C26.8694 32.5829 25.7804 32.8349 24.1844 32.9099C23.7839 32.9279 23.4524 32.9429 23.1164 32.9549L22.8254 32.9639C21.7311 32.9905 20.6365 33.002 19.5419 32.9984L18.4229 32.9999H16.4594C15.3648 33.0036 14.2702 32.9921 13.1759 32.9654L12.8849 32.9564C12.5288 32.9435 12.1728 32.9284 11.8169 32.9114C10.2209 32.8364 9.13189 32.5814 8.17489 32.2124C7.17391 31.8364 6.26725 31.2461 5.51839 30.4829C4.75496 29.7333 4.16423 28.8262 3.78739 27.8249C3.41689 26.8694 3.16489 25.7804 3.08989 24.1844C3.07318 23.8284 3.05818 23.4724 3.04489 23.1164L3.03739 22.8254C3.00973 21.7311 2.99723 20.6365 2.99989 19.5419V16.4579C2.9957 15.3638 3.0067 14.2697 3.03289 13.1759L3.04339 12.8849C3.05539 12.5489 3.07039 12.2159 3.08839 11.8169C3.16339 10.2194 3.41539 9.13186 3.78589 8.17486C4.16295 7.17379 4.75483 6.26752 5.51989 5.51986C6.26823 4.75599 7.17433 4.16472 8.17489 3.78736C9.13189 3.41686 10.2194 3.16486 11.8169 3.08986L12.8849 3.04486L13.1759 3.03736C14.2697 3.00972 15.3638 2.99722 16.4579 2.99986L19.5419 3.00136ZM17.9999 10.5014C17.0061 10.4873 16.0195 10.6709 15.0974 11.0415C14.1752 11.412 13.3359 11.9622 12.6282 12.6599C11.9205 13.3577 11.3585 14.1892 10.9749 15.106C10.5913 16.0228 10.3938 17.0068 10.3938 18.0006C10.3938 18.9944 10.5913 19.9784 10.9749 20.8952C11.3585 21.8121 11.9205 22.6435 12.6282 23.3413C13.3359 24.039 14.1752 24.5892 15.0974 24.9598C16.0195 25.3303 17.0061 25.5139 17.9999 25.4999C19.989 25.4999 21.8967 24.7097 23.3032 23.3032C24.7097 21.8966 25.4999 19.989 25.4999 17.9999C25.4999 16.0107 24.7097 14.1031 23.3032 12.6966C21.8967 11.29 19.989 10.5014 17.9999 10.5014ZM17.9999 13.5014C18.5976 13.4903 19.1916 13.5986 19.7471 13.8197C20.3026 14.0408 20.8084 14.3704 21.2351 14.7892C21.6617 15.208 22.0007 15.7076 22.2321 16.2589C22.4635 16.8101 22.5827 17.402 22.5828 17.9998C22.5829 18.5977 22.4639 19.1896 22.2326 19.7409C22.0014 20.2923 21.6627 20.792 21.2361 21.211C20.8096 21.6299 20.3039 21.9597 19.7485 22.181C19.1931 22.4023 18.5992 22.5107 18.0014 22.4999C16.8079 22.4999 15.6633 22.0258 14.8194 21.1818C13.9755 20.3379 13.5014 19.1933 13.5014 17.9999C13.5014 16.8064 13.9755 15.6618 14.8194 14.8179C15.6633 13.974 16.8079 13.4999 18.0014 13.4999L17.9999 13.5014ZM25.8749 8.25136C25.391 8.27073 24.9333 8.47658 24.5978 8.82581C24.2623 9.17505 24.0749 9.64056 24.0749 10.1249C24.0749 10.6092 24.2623 11.0747 24.5978 11.4239C24.9333 11.7731 25.391 11.979 25.8749 11.9984C26.3722 11.9984 26.8491 11.8008 27.2007 11.4492C27.5523 11.0976 27.7499 10.6206 27.7499 10.1234C27.7499 9.62608 27.5523 9.14916 27.2007 8.79753C26.8491 8.4459 26.3722 8.24836 25.8749 8.24836V8.25136Z" fill="white"/>
</svg>
