<svg width="205" height="43" viewBox="0 0 205 43" fill="none" xmlns="http://www.w3.org/2000/svg">
<rect y="1" width="41" height="41" rx="20.5" fill="#2E4B5F"/>
<path d="M30.785 24.9323L31.649 24.0682C31.7603 23.9572 31.8486 23.8253 31.9088 23.6801C31.969 23.535 32 23.3793 32 23.2221C32 23.065 31.969 22.9093 31.9088 22.7642C31.8486 22.619 31.7603 22.4871 31.649 22.3761L31.625 22.3521C31.514 22.2408 31.3821 22.1526 31.2369 22.0923C31.0918 22.0321 30.9361 22.0011 30.779 22.0011C30.6218 22.0011 30.4661 22.0321 30.321 22.0923C30.1758 22.1526 30.0439 22.2408 29.9329 22.3521L26.5006 25.7844L16.2156 15.4995L19.6479 12.0672C19.7592 11.9562 19.8474 11.8243 19.9077 11.6791C19.9679 11.5339 19.9989 11.3783 19.9989 11.2211C19.9989 11.0639 19.9679 10.9083 19.9077 10.7631C19.8474 10.6179 19.7592 10.4861 19.6479 10.375L19.6239 10.351C19.5129 10.2398 19.381 10.1515 19.2358 10.0913C19.0907 10.0311 18.935 10.0001 18.7778 10.0001C18.6207 10.0001 18.465 10.0311 18.3198 10.0913C18.1747 10.1515 18.0428 10.2398 17.9318 10.351L17.0677 11.2151L16.2036 10.351C15.7356 9.88299 14.9675 9.88299 14.4994 10.351L12.7833 12.0672L11.9192 11.2031C11.6903 10.9781 11.3821 10.852 11.0611 10.852C10.7401 10.852 10.432 10.9781 10.203 11.2031C9.97803 11.432 9.85195 11.7402 9.85195 12.0612C9.85195 12.3822 9.97803 12.6903 10.203 12.9193L11.0671 13.7833L9.35097 15.4995C9.23971 15.6105 9.15145 15.7424 9.09122 15.8876C9.031 16.0327 9 16.1884 9 16.3456C9 16.5027 9.031 16.6584 9.09122 16.8035C9.15145 16.9487 9.23971 17.0806 9.35097 17.1916L10.215 18.0557L9.35097 18.9318C9.23971 19.0428 9.15145 19.1747 9.09122 19.3199C9.031 19.465 9 19.6207 9 19.7778C9 19.935 9.031 20.0907 9.09122 20.2358C9.15145 20.381 9.23971 20.5129 9.35097 20.6239L9.37497 20.6479C9.84301 21.116 10.5991 21.116 11.0671 20.6479L14.4994 17.2156L24.7844 27.5005L21.3521 30.9328C21.2408 31.0438 21.1526 31.1757 21.0923 31.3209C21.0321 31.4661 21.0011 31.6217 21.0011 31.7789C21.0011 31.9361 21.0321 32.0917 21.0923 32.2369C21.1526 32.3821 21.2408 32.5139 21.3521 32.625L21.3761 32.649C21.8441 33.117 22.6002 33.117 23.0682 32.649L23.9323 31.7849L24.7964 32.649C25.2644 33.117 26.0205 33.117 26.4886 32.649L28.2047 30.9328L29.0688 31.7969C29.5368 32.2649 30.3169 32.2649 30.785 31.7969C31.253 31.3289 31.253 30.5488 30.785 30.0807L29.9209 29.2167L31.649 27.5005C31.7603 27.3895 31.8486 27.2576 31.9088 27.1124C31.969 26.9673 32 26.8116 32 26.6544C32 26.4973 31.969 26.3416 31.9088 26.1965C31.8486 26.0513 31.7603 25.9194 31.649 25.8084L30.785 24.9323Z" fill="white"/>
<path d="M55.768 36.132C54.496 36.036 53.656 35.724 53.248 35.196C52.864 34.668 52.672 34.008 52.672 33.216C52.672 32.328 52.828 31.26 53.14 30.012C53.452 28.764 53.86 27.432 54.364 26.016C54.868 24.6 55.42 23.196 56.02 21.804C55.756 21.828 55.336 21.864 54.76 21.912C54.208 21.96 53.632 22.02 53.032 22.092C52.456 22.14 51.988 22.2 51.628 22.272C51.7 21.528 51.976 20.952 52.456 20.544C52.96 20.112 53.596 19.8 54.364 19.608C55.156 19.416 56.008 19.308 56.92 19.284C57.544 17.556 58.18 15.876 58.828 14.244C59.5 12.588 60.172 11.076 60.844 9.708C60.7 9.684 60.532 9.672 60.34 9.672C60.148 9.648 59.884 9.636 59.548 9.636C58.084 9.636 56.944 9.792 56.128 10.104C55.336 10.416 54.784 10.86 54.472 11.436C54.184 12.012 54.04 12.72 54.04 13.56C54.04 14.16 54.1 14.712 54.22 15.216C54.34 15.696 54.52 16.224 54.76 16.8C53.632 16.608 52.828 16.248 52.348 15.72C51.868 15.168 51.628 14.484 51.628 13.668C51.628 12.42 52.084 11.316 52.996 10.356C53.932 9.396 55.18 8.64 56.74 8.088C58.324 7.536 60.1 7.26 62.068 7.26C63.34 7.26 64.612 7.344 65.884 7.512C67.156 7.68 68.344 7.764 69.448 7.764C70.048 7.764 70.624 7.728 71.176 7.656C71.728 7.56 72.364 7.416 73.084 7.224C71.932 8.496 70.984 9.348 70.24 9.78C69.52 10.212 68.812 10.428 68.116 10.428C67.54 10.428 66.796 10.356 65.884 10.212C64.972 10.044 63.988 9.924 62.932 9.852C62.62 10.62 62.284 11.508 61.924 12.516C61.564 13.524 61.192 14.604 60.808 15.756C60.448 16.908 60.076 18.096 59.692 19.32C60.94 19.416 62.068 19.524 63.076 19.644C64.084 19.764 65.2 19.848 66.424 19.896C66.136 20.28 65.836 20.592 65.524 20.832C65.236 21.048 64.84 21.204 64.336 21.3C63.856 21.396 63.184 21.468 62.32 21.516C61.48 21.564 60.376 21.6 59.008 21.624C58.816 22.344 58.612 23.076 58.396 23.82C58.18 24.564 57.988 25.2 57.82 25.728C57.676 26.256 57.58 26.58 57.532 26.7C56.86 29.004 56.392 30.888 56.128 32.352C55.888 33.792 55.768 35.052 55.768 36.132ZM69.0714 34.08C68.0154 34.08 67.2234 33.768 66.6954 33.144C66.1674 32.52 65.9034 31.764 65.9034 30.876C65.9034 30.324 65.9994 29.628 66.1914 28.788C66.3834 27.948 66.6474 27.072 66.9834 26.16C67.3434 25.224 67.7514 24.348 68.2074 23.532C68.6634 22.716 69.1554 22.056 69.6834 21.552C70.2114 21.024 70.7394 20.76 71.2674 20.76C71.5554 20.76 71.8074 20.856 72.0234 21.048C72.2394 21.216 72.3474 21.468 72.3474 21.804C72.3474 22.116 72.1554 22.584 71.7714 23.208C71.4114 23.832 70.9794 24.552 70.4754 25.368C69.9954 26.184 69.5634 27.036 69.1794 27.924C68.8194 28.788 68.6394 29.616 68.6394 30.408C68.6394 31.176 68.7714 31.692 69.0354 31.956C69.3234 32.196 69.7314 32.316 70.2594 32.316C71.0754 32.316 71.9634 31.908 72.9234 31.092C73.8834 30.276 74.8794 28.848 75.9114 26.808L76.4514 27.384C75.6114 29.496 74.5434 31.14 73.2474 32.316C71.9514 33.492 70.5594 34.08 69.0714 34.08ZM73.3194 17.844C72.8634 17.844 72.4434 17.736 72.0594 17.52C71.6994 17.28 71.5194 16.92 71.5194 16.44C71.5194 15.864 71.8314 15.372 72.4554 14.964C73.0794 14.556 73.7274 14.352 74.3994 14.352C74.8314 14.352 75.1914 14.448 75.4794 14.64C75.7914 14.832 75.9474 15.18 75.9474 15.684C75.9474 16.188 75.6714 16.68 75.1194 17.16C74.5674 17.616 73.9674 17.844 73.3194 17.844ZM78.2565 34.656C77.2005 34.656 76.3485 34.344 75.7005 33.72C75.0525 33.096 74.7285 32.148 74.7285 30.876C74.7285 29.892 74.9085 28.668 75.2685 27.204C75.6525 25.74 76.1325 24.228 76.7085 22.668C76.5405 22.62 76.3365 22.584 76.0965 22.56C75.8805 22.512 75.6645 22.44 75.4485 22.344V21.228C75.8325 21.276 76.1445 21.312 76.3845 21.336C76.6485 21.36 76.9125 21.384 77.1765 21.408C77.6805 20.136 78.2205 18.912 78.7965 17.736C79.3965 16.536 79.9845 15.468 80.5605 14.532C81.1605 13.596 81.7245 12.864 82.2525 12.336C82.7805 11.784 83.2485 11.508 83.6565 11.508C83.8965 11.508 84.1245 11.604 84.3405 11.796C84.5565 11.964 84.6645 12.216 84.6645 12.552C84.6645 13.032 84.4125 13.716 83.9085 14.604C83.4285 15.492 82.8285 16.536 82.1085 17.736C81.3885 18.912 80.6925 20.172 80.0205 21.516C80.2125 21.516 80.4045 21.516 80.5965 21.516C80.7885 21.516 80.9685 21.516 81.1365 21.516C82.1925 21.516 83.1405 21.504 83.9805 21.48C84.8445 21.432 85.7205 21.36 86.6085 21.264V22.452C85.2885 22.572 84.0765 22.668 82.9725 22.74C81.8685 22.812 80.8125 22.86 79.8045 22.884C79.7325 22.884 79.6605 22.884 79.5885 22.884C79.5165 22.884 79.4445 22.884 79.3725 22.884C78.8685 24.06 78.4245 25.272 78.0405 26.52C77.6805 27.744 77.5005 28.944 77.5005 30.12C77.5005 31.104 77.6565 31.8 77.9685 32.208C78.2805 32.616 78.7725 32.82 79.4445 32.82C80.6445 32.82 81.8685 32.28 83.1165 31.2C84.3885 30.096 85.4925 28.608 86.4285 26.736L86.9325 27.096C86.3085 28.512 85.5285 29.796 84.5925 30.948C83.6805 32.1 82.6845 33 81.6045 33.648C80.5245 34.32 79.4085 34.656 78.2565 34.656ZM97.4836 33.72C96.5476 33.72 95.8276 33.48 95.3236 33C94.8436 32.544 94.6036 31.956 94.6036 31.236C94.6036 30.756 94.6876 30.252 94.8556 29.724C95.0236 29.172 95.1916 28.62 95.3596 28.068C95.5276 27.516 95.6116 26.988 95.6116 26.484C95.6116 25.956 95.4796 25.596 95.2156 25.404C94.9756 25.188 94.6876 25.08 94.3516 25.08C93.6316 25.08 92.8876 25.38 92.1196 25.98C91.3756 26.556 90.6436 27.288 89.9236 28.176C89.2276 29.064 88.5676 29.988 87.9436 30.948C87.3196 31.908 86.7796 32.772 86.3236 33.54C85.8676 33.54 85.4356 33.456 85.0276 33.288C84.6196 33.144 84.2716 32.88 83.9836 32.496C84.0076 32.376 84.1516 32.016 84.4156 31.416C84.6556 30.792 84.9316 30.06 85.2436 29.22C85.5556 28.356 85.8316 27.456 86.0716 26.52C86.3116 25.584 86.4316 24.732 86.4316 23.964C86.5996 23.772 86.8516 23.58 87.1876 23.388C87.5476 23.196 87.9196 23.1 88.3036 23.1C89.1436 23.1 89.5636 23.46 89.5636 24.18C89.5636 24.468 89.5036 24.9 89.3836 25.476C89.2876 26.028 89.1436 26.664 88.9516 27.384C89.5756 26.544 90.2596 25.752 91.0036 25.008C91.7476 24.264 92.5156 23.664 93.3076 23.208C94.1236 22.728 94.9396 22.488 95.7556 22.488C96.7876 22.488 97.5436 22.836 98.0236 23.532C98.5276 24.228 98.7796 24.996 98.7796 25.836C98.7796 26.556 98.6596 27.228 98.4196 27.852C98.1796 28.476 97.9396 29.064 97.6996 29.616C97.4836 30.168 97.3756 30.708 97.3756 31.236C97.3756 31.62 97.4596 31.896 97.6276 32.064C97.8196 32.208 98.0236 32.28 98.2396 32.28C98.8156 32.28 99.4156 32.004 100.04 31.452C100.664 30.9 101.252 30.204 101.804 29.364C102.38 28.5 102.884 27.636 103.316 26.772L103.928 27.276C103.424 28.452 102.848 29.532 102.2 30.516C101.576 31.476 100.868 32.256 100.076 32.856C99.3076 33.432 98.4436 33.72 97.4836 33.72ZM106.543 34.584C105.007 34.584 103.819 34.164 102.979 33.324C102.163 32.508 101.755 31.476 101.755 30.228C101.755 29.172 102.019 28.056 102.547 26.88C103.099 25.68 103.831 24.564 104.743 23.532C105.655 22.476 106.663 21.624 107.767 20.976C108.871 20.328 109.975 20.004 111.079 20.004C111.703 20.004 112.291 20.172 112.843 20.508C113.419 20.82 113.707 21.456 113.707 22.416C113.707 23.328 113.443 24.18 112.915 24.972C112.387 25.764 111.679 26.472 110.791 27.096C109.903 27.72 108.919 28.236 107.839 28.644C106.783 29.028 105.715 29.28 104.635 29.4C104.611 29.496 104.587 29.604 104.563 29.724C104.563 29.82 104.563 29.988 104.563 30.228C104.563 30.348 104.575 30.564 104.599 30.876C104.647 31.164 104.755 31.476 104.923 31.812C105.091 32.148 105.367 32.436 105.751 32.676C106.135 32.916 106.663 33.036 107.335 33.036C108.343 33.036 109.351 32.76 110.359 32.208C111.391 31.632 112.351 30.876 113.239 29.94C114.151 29.004 114.907 27.96 115.507 26.808L116.227 27.384C115.579 28.824 114.739 30.084 113.707 31.164C112.699 32.244 111.571 33.084 110.323 33.684C109.099 34.284 107.839 34.584 106.543 34.584ZM105.031 28.068C105.655 27.996 106.351 27.78 107.119 27.42C107.887 27.06 108.619 26.604 109.315 26.052C110.035 25.5 110.623 24.9 111.079 24.252C111.535 23.58 111.763 22.908 111.763 22.236C111.763 21.972 111.715 21.792 111.619 21.696C111.523 21.6 111.367 21.552 111.151 21.552C110.599 21.552 110.023 21.756 109.423 22.164C108.823 22.548 108.235 23.064 107.659 23.712C107.083 24.336 106.567 25.032 106.111 25.8C105.655 26.568 105.295 27.324 105.031 28.068ZM118.849 34.836C117.649 34.836 116.677 34.584 115.933 34.08C115.213 33.6 114.697 32.988 114.385 32.244C114.073 31.476 113.917 30.696 113.917 29.904C113.917 29.208 114.013 28.668 114.205 28.284C114.397 27.9 114.637 27.624 114.925 27.456C115.213 27.264 115.477 27.12 115.717 27.024C115.981 26.928 116.173 26.82 116.293 26.7C116.893 26.076 117.505 25.356 118.129 24.54C118.777 23.7 119.329 22.776 119.785 21.768V21.408C119.785 20.448 119.941 19.776 120.253 19.392C120.589 18.984 120.973 18.78 121.405 18.78C121.693 18.78 121.897 18.852 122.017 18.996C122.161 19.14 122.245 19.308 122.269 19.5C122.269 19.644 122.233 19.812 122.161 20.004C122.113 20.196 122.089 20.46 122.089 20.796C122.089 21.516 122.257 22.344 122.593 23.28C122.953 24.192 123.301 25.164 123.637 26.196C123.997 27.228 124.177 28.284 124.177 29.364C124.177 29.652 124.165 29.916 124.141 30.156C124.117 30.396 124.081 30.624 124.033 30.84C124.777 30.648 125.509 30.24 126.229 29.616C126.949 28.968 127.633 28.02 128.281 26.772L128.713 27.096C128.257 28.464 127.597 29.568 126.733 30.408C125.869 31.224 124.861 31.728 123.709 31.92C123.325 32.904 122.689 33.636 121.801 34.116C120.937 34.596 119.953 34.836 118.849 34.836ZM118.597 33.252C119.077 33.252 119.521 33.132 119.929 32.892C120.337 32.652 120.661 32.304 120.901 31.848C119.917 31.632 119.029 31.248 118.237 30.696C117.445 30.144 116.833 29.58 116.401 29.004C116.065 29.076 115.897 29.4 115.897 29.976C115.897 30.768 116.125 31.512 116.581 32.208C117.037 32.904 117.709 33.252 118.597 33.252ZM121.189 30.768C121.237 30.6 121.261 30.408 121.261 30.192C121.285 29.952 121.297 29.772 121.297 29.652C121.273 28.572 121.129 27.504 120.865 26.448C120.601 25.392 120.337 24.312 120.073 23.208C119.641 23.952 119.137 24.756 118.561 25.62C117.985 26.484 117.445 27.18 116.941 27.708C117.325 28.356 117.889 28.968 118.633 29.544C119.377 30.12 120.229 30.528 121.189 30.768ZM131.47 34.836C130.27 34.836 129.298 34.584 128.554 34.08C127.834 33.6 127.318 32.988 127.006 32.244C126.694 31.476 126.538 30.696 126.538 29.904C126.538 29.208 126.634 28.668 126.826 28.284C127.018 27.9 127.258 27.624 127.546 27.456C127.834 27.264 128.098 27.12 128.338 27.024C128.602 26.928 128.794 26.82 128.914 26.7C129.514 26.076 130.126 25.356 130.75 24.54C131.398 23.7 131.95 22.776 132.406 21.768V21.408C132.406 20.448 132.562 19.776 132.874 19.392C133.21 18.984 133.594 18.78 134.026 18.78C134.314 18.78 134.518 18.852 134.638 18.996C134.782 19.14 134.866 19.308 134.89 19.5C134.89 19.644 134.854 19.812 134.782 20.004C134.734 20.196 134.71 20.46 134.71 20.796C134.71 21.516 134.878 22.344 135.214 23.28C135.574 24.192 135.922 25.164 136.258 26.196C136.618 27.228 136.798 28.284 136.798 29.364C136.798 29.652 136.786 29.916 136.762 30.156C136.738 30.396 136.702 30.624 136.654 30.84C137.398 30.648 138.13 30.24 138.85 29.616C139.57 28.968 140.254 28.02 140.902 26.772L141.334 27.096C140.878 28.464 140.218 29.568 139.354 30.408C138.49 31.224 137.482 31.728 136.33 31.92C135.946 32.904 135.31 33.636 134.422 34.116C133.558 34.596 132.574 34.836 131.47 34.836ZM131.218 33.252C131.698 33.252 132.142 33.132 132.55 32.892C132.958 32.652 133.282 32.304 133.522 31.848C132.538 31.632 131.65 31.248 130.858 30.696C130.066 30.144 129.454 29.58 129.022 29.004C128.686 29.076 128.518 29.4 128.518 29.976C128.518 30.768 128.746 31.512 129.202 32.208C129.658 32.904 130.33 33.252 131.218 33.252ZM133.81 30.768C133.858 30.6 133.882 30.408 133.882 30.192C133.906 29.952 133.918 29.772 133.918 29.652C133.894 28.572 133.75 27.504 133.486 26.448C133.222 25.392 132.958 24.312 132.694 23.208C132.262 23.952 131.758 24.756 131.182 25.62C130.606 26.484 130.066 27.18 129.562 27.708C129.946 28.356 130.51 28.968 131.254 29.544C131.998 30.12 132.85 30.528 133.81 30.768ZM147.115 36.132C145.531 36.132 144.259 35.844 143.299 35.268C142.339 34.716 141.643 34.02 141.211 33.18C140.779 32.364 140.563 31.56 140.563 30.768C140.563 30.144 140.683 29.532 140.923 28.932C141.163 28.308 141.511 27.792 141.967 27.384C142.447 26.976 143.047 26.772 143.767 26.772C143.887 26.772 144.031 26.784 144.199 26.808C144.367 26.808 144.643 26.844 145.027 26.916C144.571 27.276 144.199 27.792 143.911 28.464C143.647 29.136 143.515 29.784 143.515 30.408C143.515 31.08 143.671 31.728 143.983 32.352C144.319 32.976 144.775 33.48 145.351 33.864C145.951 34.272 146.635 34.476 147.403 34.476C148.339 34.476 149.239 34.164 150.103 33.54C150.967 32.916 151.675 32.052 152.227 30.948C152.803 29.82 153.091 28.536 153.091 27.096C153.091 26.184 152.947 25.284 152.659 24.396C152.371 23.484 151.867 22.68 151.147 21.984C150.451 21.264 149.479 20.748 148.231 20.436C149.575 19.86 150.727 19.08 151.687 18.096C152.647 17.112 153.391 16.056 153.919 14.928C154.447 13.776 154.711 12.708 154.711 11.724C154.711 10.548 154.375 9.732 153.703 9.276C153.031 8.796 152.287 8.556 151.471 8.556C150.823 8.556 150.187 8.688 149.563 8.952C148.963 9.216 148.459 9.612 148.051 10.14C147.667 10.644 147.475 11.256 147.475 11.976C147.475 12.36 147.535 12.768 147.655 13.2C147.775 13.608 147.955 14.028 148.195 14.46C148.051 14.748 147.799 15.036 147.439 15.324C147.103 15.588 146.767 15.72 146.431 15.72C146.095 15.72 145.795 15.564 145.531 15.252C145.267 14.916 145.063 14.508 144.919 14.028C144.799 13.524 144.739 13.032 144.739 12.552C144.739 11.4 145.087 10.416 145.783 9.6C146.479 8.784 147.379 8.16 148.483 7.728C149.587 7.296 150.727 7.08 151.903 7.08C152.935 7.08 153.907 7.272 154.819 7.656C155.755 8.04 156.523 8.616 157.123 9.384C157.723 10.128 158.023 11.052 158.023 12.156C158.023 12.876 157.879 13.632 157.591 14.424C157.327 15.216 156.931 15.972 156.403 16.692C155.899 17.412 155.287 18.06 154.567 18.636C153.871 19.212 153.103 19.668 152.263 20.004C153.535 20.436 154.543 21.036 155.287 21.804C156.031 22.572 156.559 23.412 156.871 24.324C157.207 25.212 157.375 26.076 157.375 26.916C157.375 28.02 157.123 29.124 156.619 30.228C156.139 31.308 155.431 32.292 154.495 33.18C153.583 34.092 152.503 34.812 151.255 35.34C150.007 35.868 148.627 36.132 147.115 36.132ZM169.543 36.132C167.647 36.132 166.099 35.724 164.899 34.908C163.723 34.116 162.859 33.024 162.307 31.632C161.755 30.24 161.479 28.68 161.479 26.952C161.479 25.392 161.683 23.712 162.091 21.912C162.523 20.112 163.135 18.336 163.927 16.584C164.719 14.832 165.691 13.248 166.843 11.832C168.019 10.392 169.351 9.24 170.839 8.376C172.327 7.512 173.959 7.08 175.735 7.08C176.839 7.08 177.751 7.272 178.471 7.656C179.215 8.016 179.587 8.592 179.587 9.384C179.587 9.768 179.443 10.14 179.155 10.5C178.891 10.86 178.315 11.16 177.427 11.4C177.451 11.208 177.463 11.004 177.463 10.788C177.487 10.572 177.499 10.38 177.499 10.212C177.499 9.708 177.379 9.288 177.139 8.952C176.899 8.592 176.395 8.412 175.627 8.412C174.499 8.412 173.443 8.784 172.459 9.528C171.475 10.272 170.575 11.268 169.759 12.516C168.967 13.764 168.259 15.144 167.635 16.656C167.035 18.168 166.543 19.692 166.159 21.228C166.975 20.604 167.899 20.124 168.931 19.788C169.963 19.452 171.031 19.284 172.135 19.284C173.407 19.284 174.583 19.536 175.663 20.04C176.767 20.544 177.655 21.324 178.327 22.38C178.999 23.436 179.335 24.804 179.335 26.484C179.335 28.284 178.927 29.916 178.111 31.38C177.295 32.844 176.155 33.996 174.691 34.836C173.227 35.7 171.511 36.132 169.543 36.132ZM169.723 34.476C170.635 34.476 171.451 34.236 172.171 33.756C172.891 33.3 173.503 32.688 174.007 31.92C174.511 31.128 174.895 30.252 175.159 29.292C175.447 28.308 175.591 27.324 175.591 26.34C175.591 25.092 175.387 24.084 174.979 23.316C174.571 22.524 173.995 21.948 173.251 21.588C172.531 21.204 171.703 21.012 170.767 21.012C169.447 21.012 168.379 21.336 167.563 21.984C166.771 22.632 166.195 23.472 165.835 24.504C165.475 25.512 165.295 26.604 165.295 27.78C165.295 28.428 165.355 29.136 165.475 29.904C165.619 30.672 165.847 31.404 166.159 32.1C166.471 32.796 166.915 33.36 167.491 33.792C168.091 34.248 168.835 34.476 169.723 34.476ZM190.523 36.132C188.819 36.132 187.403 35.688 186.275 34.8C185.171 33.936 184.343 32.772 183.791 31.308C183.239 29.82 182.963 28.164 182.963 26.34C182.963 24.78 183.155 23.124 183.539 21.372C183.947 19.596 184.523 17.868 185.267 16.188C186.035 14.508 186.959 12.984 188.039 11.616C189.143 10.224 190.391 9.12 191.783 8.304C193.175 7.488 194.711 7.08 196.391 7.08C197.951 7.08 199.319 7.464 200.495 8.232C201.671 9 202.583 10.128 203.231 11.616C203.879 13.104 204.203 14.928 204.203 17.088C204.203 18.84 203.975 20.616 203.519 22.416C203.087 24.216 202.463 25.932 201.647 27.564C200.831 29.196 199.859 30.66 198.731 31.956C197.603 33.252 196.343 34.272 194.951 35.016C193.583 35.76 192.107 36.132 190.523 36.132ZM191.027 34.404C192.107 34.404 193.139 34.008 194.123 33.216C195.131 32.424 196.043 31.368 196.859 30.048C197.675 28.704 198.383 27.216 198.983 25.584C199.607 23.928 200.087 22.248 200.423 20.544C200.759 18.84 200.927 17.22 200.927 15.684C200.927 14.316 200.771 13.104 200.459 12.048C200.171 10.968 199.691 10.116 199.019 9.492C198.371 8.868 197.495 8.556 196.391 8.556C195.311 8.556 194.315 8.856 193.403 9.456C192.515 10.056 191.699 10.872 190.955 11.904C190.235 12.912 189.599 14.064 189.047 15.36C188.495 16.632 188.039 17.964 187.679 19.356C187.319 20.724 187.043 22.068 186.851 23.388C186.659 24.684 186.563 25.872 186.563 26.952C186.563 29.208 186.959 31.02 187.751 32.388C188.543 33.732 189.635 34.404 191.027 34.404Z" fill="#2E4B5F"/>
</svg>
