<svg width="120" height="58" viewBox="0 0 120 58" fill="none" xmlns="http://www.w3.org/2000/svg">
<path d="M60.8447 20.4874L66.3997 10.7538L85.2696 9.53769L85.9296 8.35176L68.4897 7.13568L72.5897 0.030151H104.94C114.89 0.030151 122.239 3.62311 119.374 14.1005C118.525 17.3065 114.48 25.3216 102.595 28.6683C105.13 28.9698 111.395 31.7638 110.295 39.005C108.375 51.8593 91.8446 57.9698 82.6296 57.9698L44.4248 58L42.5248 50.5628L62.5497 49.1558L63.2347 47.9648L41.5048 46.6382L39.1698 37.8191L70.0597 35.995L70.7447 34.8342L15.2649 31.3518L17.9349 26.7035L77.6747 22.809L78.3647 21.6482L60.8447 20.4874ZM85.8446 22.4221L91.3446 22.392C95.0346 22.3668 98.8546 20.6834 100.26 17.2764C101.555 14.1005 99.8196 11.392 97.5096 11.4171H92.1746L85.8446 22.4221ZM79.4947 33.4523L72.8647 45.0352H79.1897C82.1347 45.0352 87.3896 43.5678 89.0096 39.3668C90.5196 35.4422 87.7446 33.4523 85.8196 33.4523H79.4897H79.4947ZM31.2999 51.3367L27.4499 57.9447L0 57.995L2.66999 53.3568L31.2999 51.3367ZM33.2249 0L55.3098 0.030151L56.9898 6.30151L30.6099 4.64321L33.2249 0ZM58.2248 11.2814L60.6447 20.4874L22.9349 18L25.5749 13.3769L58.2248 11.2814ZM39.0248 37.8191L34.2399 46.1658L7.63997 44.6482L10.31 40.005L39.0248 37.8191Z" fill="white"/>
</svg>
