<svg width="120" height="42" viewBox="0 0 120 42" fill="none" xmlns="http://www.w3.org/2000/svg">
<path d="M120 0L32.2093 37.3755C24.9293 40.4552 18.8142 42 13.8692 42C8.26913 42 4.2041 40.0402 1.68408 36.1157C0.09907 33.596 -0.365934 30.4014 0.284071 26.5268C0.934076 22.6523 2.66409 18.5278 5.46411 14.1383C7.79913 10.5887 11.6242 5.92429 16.9492 0.139983C15.143 2.98297 13.8185 6.10456 13.0292 9.37888C11.6292 15.3532 12.8892 19.7376 16.8092 22.5373C18.6742 23.8422 21.2392 24.4971 24.5093 24.4971C27.1193 24.4971 30.0593 24.0771 33.3293 23.2372L120 0Z" fill="white"/>
</svg>
