<svg width="120" height="71" viewBox="0 0 120 71" fill="none" xmlns="http://www.w3.org/2000/svg">
<path d="M79.77 35.5025C79.2345 35.899 78.6945 36.2892 78.15 36.673C74.02 39.6119 68.035 41.6214 60.25 41.6214H59.73C51.95 41.6214 45.955 39.6119 41.83 36.673C41.2879 36.2858 40.7479 35.8957 40.21 35.5025C40.66 35.1659 41.19 34.7841 41.83 34.327C45.955 31.3931 51.95 29.3786 59.73 29.3786H60.25C68.035 29.3786 74.03 31.3931 78.15 34.327C78.795 34.7791 79.32 35.1659 79.77 35.5025ZM120 11.2933C120 11.2933 116.455 8.57546 105.25 4.43593C95.41 0.813839 87.99 0 87.99 0L88.02 21.3156C88.02 24.3197 87.21 27.0577 84.93 30.1824C76.57 27.118 68.66 25.2341 60.025 25.2341C51.385 25.2341 43.485 27.118 35.125 30.1824C32.84 27.0727 32.025 24.3147 32.025 21.3156L32.06 0C32.06 0 24.59 0.803792 14.745 4.43593C3.545 8.58551 0 11.2933 0 11.2933C0.465 20.9689 8.9 29.5695 22.175 35.5075C8.885 41.4305 0.45 50.0059 0 59.7067C0 59.7067 3.545 62.4195 14.745 66.5641C24.585 70.1862 32.01 71 32.01 71L31.975 49.6794C31.975 46.6803 32.795 43.9373 35.07 40.8176C43.43 43.882 51.33 45.7559 59.97 45.7559C68.605 45.7559 76.515 43.877 84.87 40.8176C87.155 43.9323 87.97 46.6803 87.97 49.6794L87.94 71C87.94 71 95.36 70.1962 105.2 66.5641C116.405 62.4145 119.95 59.7067 119.95 59.7067C119.485 50.026 111.05 41.4204 97.775 35.4975C111.06 29.5595 119.49 20.989 119.95 11.2832" fill="white"/>
</svg>
