<svg width="25" height="24" viewBox="0 0 25 24" fill="none" xmlns="http://www.w3.org/2000/svg">
<path d="M2.75 2.78849V21.2104C2.75012 21.2503 2.76204 21.2894 2.78427 21.3226C2.80649 21.3558 2.83803 21.3817 2.87492 21.3971C2.91182 21.4125 2.95243 21.4166 2.99166 21.409C3.0309 21.4014 3.06701 21.3823 3.09547 21.3543L12.6875 11.9999L3.09547 2.64458C3.06701 2.61652 3.0309 2.59749 2.99166 2.58987C2.95243 2.58225 2.91182 2.58638 2.87492 2.60175C2.83803 2.61712 2.80649 2.64304 2.78427 2.67626C2.76204 2.70948 2.75012 2.74852 2.75 2.78849ZM16.7094 8.15615L4.68219 1.5299L4.67469 1.52568C4.4675 1.41318 4.27062 1.69349 4.44031 1.85661L13.8683 10.8716L16.7094 8.15615ZM4.44125 22.1432C4.27062 22.3063 4.4675 22.5866 4.67562 22.4741L4.68312 22.4699L16.7094 15.8436L13.8683 13.1272L4.44125 22.1432ZM21.5647 10.828L18.2061 8.97833L15.0481 11.9999L18.2061 15.0201L21.5647 13.1718C22.4783 12.6669 22.4783 11.3329 21.5647 10.828Z" fill="white"/>
</svg>
