<svg width="120" height="34" viewBox="0 0 120 34" fill="none" xmlns="http://www.w3.org/2000/svg">
<path d="M74.955 14.369C88.72 8.80357 97.29 5.60595 120 0C107.665 0.824703 80.39 2.71696 61.59 6.43066L74.955 14.3741M32.155 32.8464H50.155C53.72 27.3821 57.265 24.7208 61.395 21.761C58.2583 20.5337 55.1047 19.3514 51.935 18.2143C40.45 23.3446 34.06 30.2307 32.17 32.8464M35.715 12.9726C19.665 18.7759 10.745 25.0801 4.72 32.8464H24.595C26.53 30.1193 33.905 22.2568 47.76 16.7875C43.7716 15.4261 39.759 14.1542 35.715 12.9726ZM43.95 0.748808H0C44.31 8.84405 65.665 19.2667 100 34C97.065 31.7789 49.745 3.57708 43.955 0.748808" fill="white"/>
</svg>
